<svg version="1.2" xmlns="http://www.w3.org/2000/svg" viewBox="0 0 441 442" width="441" height="442"><style>.a{fill:#f8a22d}</style><path fill-rule="evenodd" class="a" d="m377.3 16.9v50c0 2.1 1.6 4.1 4.2 4.1h54.2c2.6 0 4.6 2.1 4.6 4.3v299.5c0 2.1-2 4.1-4.6 4.1h-50.6c-2.6 0-4.7 1.7-4.7 4.3v53.1c0 2.6-1.5 4.2-4.1 4.2h-306.9c-2.1 0-4.2-1.6-4.2-4.2v-50c0-2.1-2.1-4.2-4.2-4.2h-54.7c-2.6 0-4.6-1.5-4.6-4.1v-300.1c0-2.2 2-4.3 4.6-4.3h51.1c2.1 0 4.2-1.5 4.2-4.1v-52.6c0-2.1 2-4.2 4.6-4.2h87.1v-7.8c0-2.6 2-4.2 4.6-4.2h29.7c2.6 0 4.2 1.6 4.2 4.2v7.8h58.4v-7.8c0-2.6 1.6-4.2 3.6-4.2h30.3c2.6 0 4.1 1.6 4.1 4.2v7.8h84.4c2.6 0 4.7 2.1 4.7 4.2zm-4.7 101.6h-303.2c-2.1 0-4.2 2.1-4.2 4.1v207.9c0 2.6 2.1 4.2 4.2 4.2h303.2c2.6 0 4.7-1.6 4.7-4.2v-207.9c0-2.6-2.6-4.1-4.7-4.1zm-207.8 125.1h-60.5c-2.6 0-4.7-2.2-4.7-4.3v-59.3c0-2.1 2.1-4.2 4.7-4.2h60.5c2.6 0 4.6 2.1 4.6 4.2v59.3c0 2.1-2 4.3-4.6 4.3zm172.9 0h-60.5c-2.6 0-4.6-2.2-4.6-4.3v-59.3c0-2.1 2-4.2 4.6-4.2h60.5c2.6 0 4.1 2.1 4.1 4.2v59.3c0 2.1-2 4.3-4.1 4.3z"/></svg>