<svg id="Layer_1" data-name="Layer 1" xmlns="http://www.w3.org/2000/svg" viewBox="0 0 448.91 110.99"><defs><style>.cls-1{opacity:0.9;}.cls-2{fill:#fff;}.cls-3{fill:#f8a22e;}.cls-4{opacity:0.5;}.cls-5{fill:#d2dde6;}</style></defs><g class="cls-1"><path class="cls-2" d="M42.71,4.35A20.48,20.48,0,0,1,55.37,23.93a21.16,21.16,0,0,1-3.3,11.82,20.94,20.94,0,0,1-9.36,7.76,34.74,34.74,0,0,1-14.27,2.71H22.26a2.34,2.34,0,0,0-2.34,2.34v9.83a2.35,2.35,0,0,1-2.35,2.34H2.34A2.34,2.34,0,0,1,0,58.39V4A2.35,2.35,0,0,1,2.34,1.65h26.1A34.9,34.9,0,0,1,42.71,4.35ZM33.25,29a6.51,6.51,0,0,0,2-5.11,6.5,6.5,0,0,0-2-5.1Q31.23,17,27.18,17H22.26a2.35,2.35,0,0,0-2.34,2.35v9.15a2.34,2.34,0,0,0,2.34,2.34h4.92Q31.23,30.85,33.25,29Z"/><path class="cls-2" d="M128.1,59.66,120.57,48a2.34,2.34,0,0,0-3.95,0l-7.31,11.59a2.34,2.34,0,0,1-2,1.09H90.48A2.34,2.34,0,0,1,88.58,57L106.3,32.29a2.33,2.33,0,0,0,0-2.71l-17-24.24a2.34,2.34,0,0,1,1.92-3.69H107.8a2.35,2.35,0,0,1,1.94,1l7.38,10.92a2.35,2.35,0,0,0,3.9,0l7.16-10.86a2.34,2.34,0,0,1,2-1.06h15.6a2.34,2.34,0,0,1,1.9,3.71L130.78,28.82a2.34,2.34,0,0,0,0,2.73L148.94,57a2.34,2.34,0,0,1-1.91,3.7h-17A2.33,2.33,0,0,1,128.1,59.66Z"/><path class="cls-2" d="M203.15,48.05V58.39a2.35,2.35,0,0,1-2.35,2.34H156.37A2.34,2.34,0,0,1,154,58.39V4a2.35,2.35,0,0,1,2.34-2.35h43.34A2.35,2.35,0,0,1,202.05,4V14.33a2.35,2.35,0,0,1-2.34,2.35H176A2.34,2.34,0,0,0,173.61,19v2.23A2.35,2.35,0,0,0,176,23.6h20.3a2.34,2.34,0,0,1,2.34,2.34V35.6a2.34,2.34,0,0,1-2.34,2.34H176a2.35,2.35,0,0,0-2.34,2.35v3.07A2.35,2.35,0,0,0,176,45.71H200.8A2.35,2.35,0,0,1,203.15,48.05Z"/><path class="cls-2" d="M213.17,1.65H228.4A2.35,2.35,0,0,1,230.75,4V42.94a2.34,2.34,0,0,0,2.34,2.35h22a2.34,2.34,0,0,1,2.34,2.34V58.39a2.34,2.34,0,0,1-2.34,2.34h-41.9a2.34,2.34,0,0,1-2.34-2.34V4A2.35,2.35,0,0,1,213.17,1.65Z"/><path class="cls-2" d="M318.26,35.5a14.12,14.12,0,0,1,2.87,8.94,13.63,13.63,0,0,1-6.41,12q-6.42,4.26-18.57,4.26H265.24a2.34,2.34,0,0,1-2.34-2.34V4a2.35,2.35,0,0,1,2.34-2.35h29.22q11.82,0,17.85,4.22a13.07,13.07,0,0,1,6,11.23,13.64,13.64,0,0,1-2.07,7.42,13.15,13.15,0,0,1-2.8,3.18,2.33,2.33,0,0,0,.21,3.81A16,16,0,0,1,318.26,35.5ZM282.48,17.92V22a2.35,2.35,0,0,0,2.34,2.35h6.94c4.34,0,6.5-1.47,6.5-4.39s-2.16-4.39-6.5-4.39h-6.94A2.34,2.34,0,0,0,282.48,17.92Zm18.57,24.24q0-4.63-6.59-4.64h-9.64a2.35,2.35,0,0,0-2.34,2.35v4.59a2.35,2.35,0,0,0,2.34,2.35h9.64Q301,46.81,301.05,42.16Z"/><path class="cls-2" d="M409.35,17.1H396.74a2.35,2.35,0,0,1-2.35-2.35V4a2.35,2.35,0,0,1,2.35-2.35h49.83A2.35,2.35,0,0,1,448.91,4V14.75a2.35,2.35,0,0,1-2.34,2.35H434a2.34,2.34,0,0,0-2.34,2.34v39a2.34,2.34,0,0,1-2.34,2.34H414a2.35,2.35,0,0,1-2.35-2.34V19.44A2.34,2.34,0,0,0,409.35,17.1Z"/><rect class="cls-2" x="61.86" y="41.15" width="19.92" height="19.58" rx="2.34"/><rect class="cls-2" x="61.86" y="1.65" width="19.92" height="19.58" rx="2.34"/></g><path class="cls-3" d="M379.92,2.24V9.13a.58.58,0,0,0,.58.59h7.37a.58.58,0,0,1,.59.59V51.6a.58.58,0,0,1-.59.59H381a.58.58,0,0,0-.59.59v7.37a.58.58,0,0,1-.58.58h-41.3a.58.58,0,0,1-.59-.58v-6.9a.58.58,0,0,0-.58-.58H330a.59.59,0,0,1-.58-.59V10.66a.59.59,0,0,1,.58-.59h6.9a.59.59,0,0,0,.59-.58V2.24a.58.58,0,0,1,.58-.59h41.3A.59.59,0,0,1,379.92,2.24Zm-.59,14H338.51a.59.59,0,0,0-.59.59V45.53a.58.58,0,0,0,.59.58h40.82a.59.59,0,0,0,.59-.58V16.86A.6.6,0,0,0,379.33,16.27Z"/><rect class="cls-3" x="342.61" y="24.18" width="9.33" height="9.33" rx="0.25"/><rect class="cls-3" x="365.9" y="24.18" width="9.33" height="9.33" rx="0.25"/><rect class="cls-3" x="349.84" width="5.19" height="5.19" rx="0.25"/><rect class="cls-3" x="362.8" width="5.19" height="5.19" rx="0.25"/><g class="cls-4"><path class="cls-5" d="M103.75,110.19a13.32,13.32,0,0,1-4.38-2l1.94-4.29a13.21,13.21,0,0,0,3.76,1.86,14.09,14.09,0,0,0,4.36.7,7,7,0,0,0,3.59-.72,2.18,2.18,0,0,0,1.16-1.91,1.81,1.81,0,0,0-.69-1.46,5.18,5.18,0,0,0-1.75-.94c-.72-.23-1.69-.49-2.91-.77a37.94,37.94,0,0,1-4.6-1.34,7.47,7.47,0,0,1-3.08-2.14,5.84,5.84,0,0,1-1.28-3.94A6.78,6.78,0,0,1,101,89.31a7.74,7.74,0,0,1,3.5-2.77,14.26,14.26,0,0,1,5.71-1,18.72,18.72,0,0,1,4.61.57,13.62,13.62,0,0,1,3.94,1.61L117,92a13.73,13.73,0,0,0-6.82-1.93,6.37,6.37,0,0,0-3.54.77,2.37,2.37,0,0,0-1.14,2,2,2,0,0,0,1.32,1.88,20.21,20.21,0,0,0,4,1.21,39.5,39.5,0,0,1,4.61,1.34,7.7,7.7,0,0,1,3.08,2.11,5.67,5.67,0,0,1,1.28,3.9,6.68,6.68,0,0,1-1.18,3.85,7.9,7.9,0,0,1-3.53,2.77,14.39,14.39,0,0,1-5.73,1A20.09,20.09,0,0,1,103.75,110.19Z"/><path class="cls-5" d="M152.05,90.59h-7.88V86h21.46v4.64h-7.88v20h-5.7Z"/><path class="cls-5" d="M192,108.07c-2-1.95-2.93-4.73-2.93-8.34V86h5.69V99.52q0,6.62,5.49,6.61a5.14,5.14,0,0,0,4.08-1.6q1.4-1.59,1.4-5V86h5.63V99.73q0,5.42-2.94,8.34c-2,1.94-4.69,2.92-8.21,2.92S193.94,110,192,108.07Z"/><path class="cls-5" d="M233.11,86h11.18a15.77,15.77,0,0,1,7.09,1.53,11.47,11.47,0,0,1,4.78,4.3,13.16,13.16,0,0,1,0,12.94,11.43,11.43,0,0,1-4.78,4.31,15.77,15.77,0,0,1-7.09,1.53H233.11ZM244,105.89a8.29,8.29,0,0,0,5.89-2.06,8.16,8.16,0,0,0,0-11.15A8.29,8.29,0,0,0,244,90.62H238.8v15.27Z"/><path class="cls-5" d="M287.93,86h5.7v24.61h-5.7Z"/><path class="cls-5" d="M329.16,109.33a12.29,12.29,0,0,1-4.82-4.55,13.1,13.1,0,0,1,0-13,12.29,12.29,0,0,1,4.82-4.55,15.17,15.17,0,0,1,13.8,0,12.55,12.55,0,0,1,0,22.15,15.17,15.17,0,0,1-13.8,0Zm10.85-4.2a7.21,7.21,0,0,0,2.76-2.8,8.82,8.82,0,0,0,0-8.16A7.25,7.25,0,0,0,340,91.38a8.26,8.26,0,0,0-7.88,0,7.25,7.25,0,0,0-2.76,2.79,8.82,8.82,0,0,0,0,8.16,7.21,7.21,0,0,0,2.76,2.8,8.26,8.26,0,0,0,7.88,0Z"/></g></svg>