<svg id="Layer_1" data-name="Layer 1" xmlns="http://www.w3.org/2000/svg" viewBox="0 0 192 198"><defs><style>.cls-1{fill:#f8a22e;}</style></defs><path class="cls-1" d="M164.14,7.72V30.1A1.9,1.9,0,0,0,166,32H190a1.91,1.91,0,0,1,1.91,1.9v134a1.92,1.92,0,0,1-1.91,1.91H167.58a1.9,1.9,0,0,0-1.9,1.9v23.91a1.9,1.9,0,0,1-1.9,1.9h-134a1.9,1.9,0,0,1-1.9-1.9V173.27a1.9,1.9,0,0,0-1.9-1.9H2a1.91,1.91,0,0,1-1.91-1.9V35.05A1.91,1.91,0,0,1,2,33.15H24.42a1.9,1.9,0,0,0,1.9-1.9V7.72a1.9,1.9,0,0,1,1.9-1.9h134A1.9,1.9,0,0,1,164.14,7.72Zm-1.9,45.55H29.76a1.9,1.9,0,0,0-1.9,1.9v93a1.9,1.9,0,0,0,1.9,1.9H162.24a1.9,1.9,0,0,0,1.9-1.9v-93A1.9,1.9,0,0,0,162.24,53.27Z"/><rect class="cls-1" x="43.07" y="78.93" width="30.28" height="30.28" rx="0.61"/><rect class="cls-1" x="118.65" y="78.93" width="30.28" height="30.28" rx="0.61"/><rect class="cls-1" x="66.54" y="0.46" width="16.85" height="16.85" rx="0.61"/><rect class="cls-1" x="108.61" y="0.46" width="16.85" height="16.85" rx="0.61"/></svg>