
<svg version="1.2" xmlns="http://www.w3.org/2000/svg" viewBox="0 0 245 33" width="245" height="33">
	<title>New Project</title>
	
	<style>
		.s1 { fill: #f8a22d } 
	</style>
	<g id="&lt;Group&gt;">
		<g id="&lt;Group&gt;">
			<g id="&lt;Group&gt;">
				<g id="&lt;Group&gt;">
					<path id="&lt;Compound Path&gt;" fill-rule="evenodd" class="s1" d="m206.7 1.2v3.8c0 0.1 0.1 0.3 0.3 0.3h4c0.2 0 0.3 0.1 0.3 0.3v22.4c0 0.2-0.1 0.4-0.3 0.4h-3.7c-0.2 0-0.3 0.1-0.3 0.3v4c0 0.2-0.2 0.3-0.4 0.3h-22.4c-0.2 0-0.3-0.1-0.3-0.3v-3.8c0-0.1-0.2-0.3-0.3-0.3h-4c-0.2 0-0.4-0.1-0.4-0.3v-22.5c0-0.2 0.2-0.3 0.4-0.3h3.7c0.2 0 0.3-0.2 0.3-0.3v-4c0-0.2 0.2-0.3 0.3-0.3h22.5c0.2 0 0.3 0.1 0.3 0.3zm-0.3 7.6h-22.2c-0.2 0-0.3 0.2-0.3 0.4v15.5c0 0.2 0.1 0.4 0.3 0.4h22.2c0.2 0 0.3-0.2 0.3-0.4v-15.5c0-0.2-0.1-0.4-0.3-0.4z"/>
				</g>
				<g id="&lt;Group&gt;">
					<path id="&lt;Path&gt;" class="s1" d="m191.2 18.2h-4.5c-0.1 0-0.3-0.1-0.3-0.3v-4.4c0-0.2 0.2-0.4 0.3-0.4h4.5c0.2 0 0.3 0.2 0.3 0.4v4.4c0 0.2-0.1 0.3-0.3 0.3z"/>
					<path id="&lt;Path&gt;" class="s1" d="m203.8 18.2h-4.4c-0.2 0-0.3-0.1-0.3-0.3v-4.4c0-0.2 0.1-0.4 0.3-0.4h4.4c0.2 0 0.3 0.2 0.3 0.4v4.4c0 0.2-0.1 0.3-0.3 0.3z"/>
				</g>
				<g id="&lt;Group&gt;">
					<path id="&lt;Path&gt;" class="s1" d="m192.9 2.8h-2.2c-0.2 0-0.3-0.1-0.3-0.3v-2.2c0-0.2 0.1-0.3 0.3-0.3h2.2c0.1 0 0.3 0.1 0.3 0.3v2.2c0 0.2-0.2 0.3-0.3 0.3z"/>
					<path id="&lt;Path&gt;" class="s1" d="m199.9 2.8h-2.2c-0.2 0-0.3-0.1-0.3-0.3v-2.2c0-0.2 0.1-0.3 0.3-0.3h2.2c0.2 0 0.3 0.1 0.3 0.3v2.2c0 0.2-0.1 0.3-0.3 0.3z"/>
				</g>
			</g>
		</g>
	</g>
</svg>
